# xmcd
#
# Track frame offsets: 
#        150
#        19930
#        37405
#        53385
#        66481
#        80210
#        98300
#        116192
#        134782
#        148350
#
# Disc length: 2118 seconds
#
# Revision: 0
# Processed by: cddbd v1.5.2PL0 Copyright (c) Steve Scherf et al.
# Submitted via: ExactAudioCopy v0.99pb3
#
DISCID=9c08440a
DTITLE=Giardina, Tiffany - We've Got Christmas
DYEAR=2005
DGENRE=Christmas/Holiday
TTITLE0=Rosie Christmas
TTITLE1=Joy To The World
TTITLE2=Sure Don't Feel Like Christmas
TTITLE3=Greatest Time Of The Year
TTITLE4=What Child Is This-Little Drummer Boy
TTITLE5=Christmas Melody
TTITLE6=The First Noel
TTITLE7=Little Hands
TTITLE8=We've Got Christmas
TTITLE9=Jump Shout (Featured Song)
EXTD=
EXTT0=
EXTT1=
EXTT2=
EXTT3=
EXTT4=
EXTT5=
EXTT6=
EXTT7=
EXTT8=
EXTT9=
PLAYORDER=
